<svg width="95" height="24" viewBox="0 0 95 24" fill="none" xmlns="http://www.w3.org/2000/svg">
<path d="M91.3639 7.70935L91.3705 14.2717C91.3705 14.7 91.4699 15.0136 91.6687 15.2124C91.8829 15.396 92.2347 15.4878 92.7242 15.4878H94.2155V18.1952H92.1965C89.489 18.1952 88.1353 16.8797 88.1353 14.2488L88.1287 7.70935H86.6144V5.07076H88.1287V2.13396H91.3639V5.07076H94.2089V7.70935H91.3639Z" fill="#1A1410"/>
<path d="M83.4975 3.76286C82.9805 3.76286 82.5473 3.58695 82.198 3.23514C81.8626 2.86803 81.6949 2.41679 81.6949 1.88143C81.6949 1.34606 81.8626 0.902474 82.198 0.550662C82.5473 0.183554 82.9805 0 83.4975 0C84.0146 0 84.4408 0.183554 84.7762 0.550662C85.1255 0.902474 85.3002 1.34606 85.3002 1.88143C85.3002 2.41679 85.1255 2.86803 84.7762 3.23514C84.4408 3.58695 84.0146 3.76286 83.4975 3.76286ZM85.0807 5.07062V18.1985H81.8685V5.07062H85.0807Z" fill="#1A1410"/>
<path d="M70.5265 5.07072L73.8961 14.1569L77.3508 5.07072H80.7695L72.7718 24H69.3531L72.1064 17.6674L66.9243 5.07072H70.5265Z" fill="#1A1410"/>
<path d="M60.6416 18.1948C59.4179 18.1948 58.3166 17.9271 57.3376 17.3918C56.3587 16.8411 55.5862 16.0687 55.0203 15.0744C54.4696 14.0802 54.1943 12.933 54.1943 11.6328C54.1943 10.3326 54.4773 9.18539 55.0432 8.19114C55.6245 7.19689 56.4122 6.43208 57.4065 5.89671C58.4007 5.34605 59.5097 5.07072 60.7334 5.07072C61.9571 5.07072 63.0661 5.34605 64.0603 5.89671C65.0546 6.43208 65.8347 7.19689 66.4006 8.19114C66.9819 9.18539 67.2725 10.3326 67.2725 11.6328C67.2725 12.933 66.9742 14.0802 66.3777 15.0744C65.7964 16.0687 65.001 16.8411 63.9915 17.3918C62.9972 17.9271 61.8806 18.1948 60.6416 18.1948ZM60.6416 15.4415C61.2229 15.4415 61.7659 15.2962 62.2707 15.0056C62.7907 14.715 63.2037 14.2867 63.5096 13.7207C63.8156 13.1394 63.9685 12.4435 63.9685 11.6328C63.9685 10.8221 63.8156 10.1338 63.5096 9.56779C63.2037 8.98654 62.7984 8.5506 62.2936 8.25997C61.8041 7.96934 61.2688 7.82403 60.6875 7.82403C59.785 7.82403 59.0202 8.16055 58.3931 8.83358C57.7659 9.49131 57.4524 10.4244 57.4524 11.6328C57.4524 12.8412 57.7583 13.7819 58.3701 14.4549C58.982 15.1127 59.7391 15.4415 60.6416 15.4415Z" fill="#1A1410"/>
<path d="M52.971 2.12929V18.1946C51.7165 18.1946 51.0132 18.1946 49.7588 18.1946V2.12929H52.971Z" fill="#1A1410"/>
<path d="M38.5682 7.11276C38.9812 6.5315 39.5471 6.04968 40.266 5.66727C41.0002 5.26957 41.8339 5.07072 42.767 5.07072C43.853 5.07072 44.8319 5.3384 45.7038 5.87377C46.591 6.40914 47.287 7.17394 47.7917 8.16819C48.3118 9.14715 48.5719 10.2867 48.5719 11.5869C48.5719 12.8871 48.3118 14.0419 47.7917 15.0515C47.287 16.0457 46.591 16.8182 45.7038 17.3688C44.8319 17.9195 43.853 18.1948 42.767 18.1948C41.8339 18.1948 41.0079 18.0036 40.289 17.6212C39.5854 17.2388 39.0117 16.757 38.5682 16.1757V23.9958H35.356V5.07375H38.5682V7.11276ZM45.2908 11.5869C45.2908 10.8221 45.1302 10.1643 44.809 9.61368C44.5031 9.04772 44.0901 8.61943 43.57 8.3288C43.0652 8.03818 42.5146 7.89286 41.918 7.89286C41.3368 7.89286 40.7861 8.04582 40.266 8.35175C39.7613 8.64238 39.3483 9.07067 39.027 9.63663C38.7211 10.2026 38.5682 10.868 38.5682 11.6328C38.5682 12.3976 38.7211 13.063 39.027 13.6289C39.3483 14.1949 39.7613 14.6308 40.266 14.9367C40.7861 15.2274 41.3368 15.3727 41.918 15.3727C42.5146 15.3727 43.0652 15.2197 43.57 14.9138C44.0901 14.6079 44.5031 14.1719 44.809 13.606C45.1302 13.04 45.2908 12.367 45.2908 11.5869Z" fill="#1A1410"/>
<path d="M33.9763 11.3345C33.9763 11.7628 33.9457 12.1605 33.8845 12.5276H24.5921C24.6533 13.4607 24.9668 14.1949 25.5328 14.7302C26.0988 15.2656 26.8024 15.5333 27.6437 15.5333C28.8368 15.5333 29.6857 15.0209 30.1905 13.996H33.6551C33.288 15.2197 32.5843 16.2293 31.5442 17.0247C30.5041 17.8048 29.2268 18.1948 27.7125 18.1948C26.4888 18.1948 25.3875 17.9271 24.4085 17.3918C23.4449 16.8411 22.6877 16.0687 22.137 15.0744C21.6017 14.0802 21.334 12.933 21.334 11.6328C21.334 10.3173 21.6017 9.16244 22.137 8.16819C22.6724 7.17394 23.4219 6.40914 24.3856 5.87377C25.3492 5.3384 26.4582 5.07072 27.7125 5.07072C28.9209 5.07072 29.9993 5.33076 30.9476 5.85082C31.9113 6.37089 32.6532 7.10511 33.1732 8.05347C33.7086 9.00184 33.9763 10.0955 33.9763 11.3345ZM30.6494 10.5773C30.6341 9.69016 30.3358 8.99419 29.7545 8.48941C29.1886 7.96934 28.4773 7.70931 27.6207 7.70931C26.81 7.70931 26.1293 7.96934 25.5787 8.48941C25.028 8.99419 24.6992 9.69016 24.5921 10.5773H30.6494Z" fill="#1A1410"/>
<path fill-rule="evenodd" clip-rule="evenodd" d="M5.95867 9.60275L0 18.1955H10.5415C13.6389 18.1955 16.561 16.7586 18.4522 14.3057C20.5889 11.5344 20.5889 7.67106 18.4522 4.89977C16.561 2.44686 13.6389 1.01004 10.5415 1.01004L0 1.01004L5.95867 9.60275ZM6.14267 4.11298L9.75231 9.60275L6.14267 15.0925H10.5415C12.6767 15.0925 14.6911 14.102 15.9948 12.4111C17.2707 10.7562 17.2707 8.44926 15.9948 6.79441C14.6911 5.10348 12.6767 4.11298 10.5415 4.11298H6.14267Z" fill="#1A1410"/>
</svg>
