<svg width="35" height="26" viewBox="0 0 35 26" fill="none" xmlns="http://www.w3.org/2000/svg">
<path d="M34.8776 26.0088H19.9622V15.8476C19.9622 13.7036 20.2729 11.6838 20.8944 9.78825C21.5469 7.86168 22.4947 6.18369 23.7376 4.75429C24.9806 3.3249 26.5188 2.17517 28.3521 1.3051C30.2165 0.435034 32.3917 0 34.8776 0V5.45346C28.5696 5.45346 25.4156 8.91819 25.4156 15.8476V17.2926H34.8776V26.0088ZM14.8222 26.0088H0V15.8476C0 13.7036 0.295201 11.6838 0.885604 9.78825C1.50708 7.86168 2.4393 6.18369 3.68225 4.75429C4.9252 3.3249 6.46335 2.17517 8.29671 1.3051C10.1611 0.435034 12.3363 0 14.8222 0V5.45346C8.57638 5.45346 5.45346 8.91819 5.45346 15.8476V17.2926H14.8222V26.0088Z" fill="#5B21B6"/>
<path d="M34.8776 26.0088H19.9622V15.8476C19.9622 13.7036 20.2729 11.6838 20.8944 9.78825C21.5469 7.86168 22.4947 6.18369 23.7376 4.75429C24.9806 3.3249 26.5188 2.17517 28.3521 1.3051C30.2165 0.435034 32.3917 0 34.8776 0V5.45346C28.5696 5.45346 25.4156 8.91819 25.4156 15.8476V17.2926H34.8776V26.0088ZM14.8222 26.0088H0V15.8476C0 13.7036 0.295201 11.6838 0.885604 9.78825C1.50708 7.86168 2.4393 6.18369 3.68225 4.75429C4.9252 3.3249 6.46335 2.17517 8.29671 1.3051C10.1611 0.435034 12.3363 0 14.8222 0V5.45346C8.57638 5.45346 5.45346 8.91819 5.45346 15.8476V17.2926H14.8222V26.0088Z" fill="url(#paint0_linear_285_1061)"/>
<path d="M34.8776 26.0088H19.9622V15.8476C19.9622 13.7036 20.2729 11.6838 20.8944 9.78825C21.5469 7.86168 22.4947 6.18369 23.7376 4.75429C24.9806 3.3249 26.5188 2.17517 28.3521 1.3051C30.2165 0.435034 32.3917 0 34.8776 0V5.45346C28.5696 5.45346 25.4156 8.91819 25.4156 15.8476V17.2926H34.8776V26.0088ZM14.8222 26.0088H0V15.8476C0 13.7036 0.295201 11.6838 0.885604 9.78825C1.50708 7.86168 2.4393 6.18369 3.68225 4.75429C4.9252 3.3249 6.46335 2.17517 8.29671 1.3051C10.1611 0.435034 12.3363 0 14.8222 0V5.45346C8.57638 5.45346 5.45346 8.91819 5.45346 15.8476V17.2926H14.8222V26.0088Z" fill="#EADDFF"/>
<path d="M34.8776 26.0088H19.9622V15.8476C19.9622 13.7036 20.2729 11.6838 20.8944 9.78825C21.5469 7.86168 22.4947 6.18369 23.7376 4.75429C24.9806 3.3249 26.5188 2.17517 28.3521 1.3051C30.2165 0.435034 32.3917 0 34.8776 0V5.45346C28.5696 5.45346 25.4156 8.91819 25.4156 15.8476V17.2926H34.8776V26.0088ZM14.8222 26.0088H0V15.8476C0 13.7036 0.295201 11.6838 0.885604 9.78825C1.50708 7.86168 2.4393 6.18369 3.68225 4.75429C4.9252 3.3249 6.46335 2.17517 8.29671 1.3051C10.1611 0.435034 12.3363 0 14.8222 0V5.45346C8.57638 5.45346 5.45346 8.91819 5.45346 15.8476V17.2926H14.8222V26.0088Z" fill="url(#paint1_linear_285_1061)"/>
<defs>
<linearGradient id="paint0_linear_285_1061" x1="0" y1="13.0044" x2="25.9211" y2="13.0044" gradientUnits="userSpaceOnUse">
<stop stop-color="#E87A3E"/>
<stop offset="1" stop-color="#E87A3E" stop-opacity="0"/>
</linearGradient>
<linearGradient id="paint1_linear_285_1061" x1="-2.83107" y1="13.0044" x2="34.8776" y2="13.0044" gradientUnits="userSpaceOnUse">
<stop stop-color="#5B21B6"/>
<stop offset="1" stop-color="#5B21B6" stop-opacity="0"/>
</linearGradient>
</defs>
</svg>
