<svg width="103" height="116" viewBox="0 0 103 116" fill="none" xmlns="http://www.w3.org/2000/svg">
<path d="M96.7079 27.1081C77.7383 26.7658 67.9222 22.1162 51.104 7.41528C34.7571 22.7164 24.755 27.1044 5.5 27.1081V40.3363C5.5 70.4359 23.438 97.6392 51.104 109.496C78.77 97.6392 96.7079 70.4359 96.7079 40.3363V27.1081Z" stroke="url(#paint0_linear_285_1015)" stroke-width="11"/>
<path fill-rule="evenodd" clip-rule="evenodd" d="M51.104 61.4007L65.4132 71.3235L65.4132 53.769C65.4132 48.6111 63.0205 43.7451 58.9357 40.5957C54.3208 37.0375 47.8872 37.0375 43.2723 40.5957C39.1875 43.7451 36.7948 48.6111 36.7948 53.769L36.7948 71.3235L51.104 61.4007ZM41.9621 61.0943L51.104 55.0833L60.2459 61.0943L60.2459 53.769C60.2459 50.2134 58.5965 46.8589 55.7806 44.6878C53.0249 42.5631 49.1831 42.5631 46.4274 44.6878C43.6115 46.8589 41.9621 50.2134 41.9621 53.769L41.9621 61.0943Z" fill="#E87A3E"/>
<path fill-rule="evenodd" clip-rule="evenodd" d="M51.104 61.4007L65.4132 71.3235L65.4132 53.769C65.4132 48.6111 63.0205 43.7451 58.9357 40.5957C54.3208 37.0375 47.8872 37.0375 43.2723 40.5957C39.1875 43.7451 36.7948 48.6111 36.7948 53.769L36.7948 71.3235L51.104 61.4007ZM41.9621 61.0943L51.104 55.0833L60.2459 61.0943L60.2459 53.769C60.2459 50.2134 58.5965 46.8589 55.7806 44.6878C53.0249 42.5631 49.1831 42.5631 46.4274 44.6878C43.6115 46.8589 41.9621 50.2134 41.9621 53.769L41.9621 61.0943Z" fill="url(#paint1_linear_285_1015)" fill-opacity="0.32" style="mix-blend-mode:screen"/>
<defs>
<linearGradient id="paint0_linear_285_1015" x1="51.104" y1="7.41528" x2="51.104" y2="109.496" gradientUnits="userSpaceOnUse">
<stop stop-color="#E87A3E"/>
<stop offset="1" stop-color="#824423" stop-opacity="0"/>
</linearGradient>
<linearGradient id="paint1_linear_285_1015" x1="44.9573" y1="47.5648" x2="52.0445" y2="62.1915" gradientUnits="userSpaceOnUse">
<stop stop-color="white" stop-opacity="0"/>
<stop offset="0.5" stop-color="white"/>
<stop offset="1" stop-color="white" stop-opacity="0"/>
</linearGradient>
</defs>
</svg>
