<svg width="52" height="52" viewBox="0 0 52 52" fill="none" xmlns="http://www.w3.org/2000/svg">
<path d="M25.9564 5.16162C29.2233 8.09277 32.1046 10.1596 35.2054 11.5024C38.217 12.8067 41.3208 13.3771 45.0062 13.52V18.1245C45.006 30.7738 37.5428 42.2159 25.9993 47.3286C14.4563 42.2157 6.99367 30.7735 6.99348 18.1245V13.4849C10.6344 13.2758 13.6857 12.6472 16.6722 11.3354C19.7352 9.99006 22.6249 7.97227 25.9564 5.16162Z" fill="#F4F8FF"/>
<path d="M25.9564 5.16162C29.2233 8.09277 32.1046 10.1596 35.2054 11.5024C38.217 12.8067 41.3208 13.3771 45.0062 13.52V18.1245C45.006 30.7738 37.5428 42.2159 25.9993 47.3286C14.4563 42.2157 6.99367 30.7735 6.99348 18.1245V13.4849C10.6344 13.2758 13.6857 12.6472 16.6722 11.3354C19.7352 9.99006 22.6249 7.97227 25.9564 5.16162Z" stroke="#EADDFF" stroke-width="4"/>
<path d="M25.9564 5.16162C29.2233 8.09277 32.1046 10.1596 35.2054 11.5024C38.217 12.8067 41.3208 13.3771 45.0062 13.52V18.1245C45.006 30.7738 37.5428 42.2159 25.9993 47.3286C14.4563 42.2157 6.99367 30.7735 6.99348 18.1245V13.4849C10.6344 13.2758 13.6857 12.6472 16.6722 11.3354C19.7352 9.99006 22.6249 7.97227 25.9564 5.16162Z" stroke="url(#paint0_linear_285_1107)" stroke-width="4"/>
<path d="M20.1478 26.5536L23.6799 30.0856L31.852 21.9136" stroke="#EADDFF" stroke-width="4.33333"/>
<path d="M20.1478 26.5536L23.6799 30.0856L31.852 21.9136" stroke="url(#paint1_linear_285_1107)" stroke-width="4.33333"/>
<defs>
<linearGradient id="paint0_linear_285_1107" x1="-9.75234" y1="62.6559" x2="35.9841" y2="62.6559" gradientUnits="userSpaceOnUse">
<stop offset="0.44603" stop-color="#5B21B6" stop-opacity="0"/>
<stop offset="0.71482" stop-color="#5B21B6" stop-opacity="0.344516"/>
<stop offset="0.855158" stop-color="#5B21B6"/>
</linearGradient>
<linearGradient id="paint1_linear_285_1107" x1="22.6412" y1="32.3693" x2="40.1819" y2="25.9996" gradientUnits="userSpaceOnUse">
<stop stop-color="#5B21B6"/>
<stop offset="1" stop-color="#5B21B6" stop-opacity="0"/>
</linearGradient>
</defs>
</svg>
