<svg width="42" height="42" viewBox="0 0 42 42" fill="none" xmlns="http://www.w3.org/2000/svg">
<rect x="7.25598" y="7.25537" width="27.4882" height="27.4882" rx="1.75" fill="#F4F8FF"/>
<rect x="7.25598" y="7.25537" width="27.4882" height="27.4882" rx="1.75" stroke="#EADDFF" stroke-width="3.5"/>
<rect x="7.25598" y="7.25537" width="27.4882" height="27.4882" rx="1.75" stroke="url(#paint0_linear_427_695)" stroke-width="3.5"/>
<path d="M5.50598 9.00537C5.50598 7.07237 7.07298 5.50537 9.00598 5.50537H32.9941C34.9271 5.50537 36.4941 7.07237 36.4941 9.00537V18.2085H5.50598V9.00537Z" fill="#EADDFF"/>
<path d="M5.50598 9.00537C5.50598 7.07237 7.07298 5.50537 9.00598 5.50537H32.9941C34.9271 5.50537 36.4941 7.07237 36.4941 9.00537V18.2085H5.50598V9.00537Z" fill="url(#paint1_linear_427_695)"/>
<defs>
<linearGradient id="paint0_linear_427_695" x1="36.4941" y1="36.4935" x2="36.4941" y2="18.7165" gradientUnits="userSpaceOnUse">
<stop stop-color="#5B21B6"/>
<stop offset="0.849482" stop-color="#5B21B6" stop-opacity="0"/>
</linearGradient>
<linearGradient id="paint1_linear_427_695" x1="2.99062" y1="11.857" x2="36.4941" y2="11.857" gradientUnits="userSpaceOnUse">
<stop stop-color="#5B21B6"/>
<stop offset="1" stop-color="#5B21B6" stop-opacity="0"/>
</linearGradient>
</defs>
</svg>
