<svg width="42" height="42" viewBox="0 0 42 42" fill="none" xmlns="http://www.w3.org/2000/svg">
<rect x="6.50595" y="6.50537" width="28.9882" height="28.9882" rx="2.5" stroke="#EADDFF" stroke-width="2"/>
<rect x="6.50595" y="6.50537" width="28.9882" height="28.9882" rx="2.5" stroke="url(#paint0_linear_427_497)" stroke-width="2"/>
<path d="M18.9993 29C18.8489 29 18.6966 28.9658 18.553 28.8945C18.059 28.6474 17.8588 28.0468 18.1058 27.5526L22.1053 19.5519C22.3533 19.0577 22.9529 18.8604 23.447 19.1046C23.941 19.3517 24.1412 19.9523 23.8942 20.4465L19.8947 28.4472C19.7189 28.7978 19.3664 29 18.9993 29Z" fill="#662FBB"/>
<path d="M15 29C14.7441 29 14.4883 28.9023 14.293 28.707L10.293 24.707C9.90234 24.3164 9.90234 23.6836 10.293 23.293L14.293 19.293C14.6836 18.9023 15.3164 18.9023 15.707 19.293C16.0977 19.6836 16.0977 20.3164 15.707 20.707L12.4141 24L15.707 27.293C16.0977 27.6836 16.0977 28.3164 15.707 28.707C15.5117 28.9023 15.2559 29 15 29Z" fill="#662FBB"/>
<path d="M27 29C26.7441 29 26.4883 28.9023 26.293 28.707C25.9023 28.3164 25.9023 27.6836 26.293 27.293L29.5859 24L26.293 20.707C25.9023 20.3164 25.9023 19.6836 26.293 19.293C26.6836 18.9023 27.3164 18.9023 27.707 19.293L31.707 23.293C32.0977 23.6836 32.0977 24.3164 31.707 24.707L27.707 28.707C27.5117 28.9023 27.2559 29 27 29Z" fill="#662FBB"/>
<path d="M6 8.5C6 6.567 7.567 5 9.5 5H32.5C34.433 5 36 6.567 36 8.5V14H6V8.5Z" fill="#EADDFF"/>
<path d="M6 8.5C6 6.567 7.567 5 9.5 5H32.5C34.433 5 36 6.567 36 8.5V14H6V8.5Z" fill="url(#paint1_linear_427_497)"/>
<path d="M31.8 10.8C32.5732 10.8 33.2 10.1732 33.2 9.4C33.2 8.6268 32.5732 8 31.8 8C31.0268 8 30.4 8.6268 30.4 9.4C30.4 10.1732 31.0268 10.8 31.8 10.8Z" fill="white"/>
<path d="M27.6 10.8C28.3732 10.8 29 10.1732 29 9.4C29 8.6268 28.3732 8 27.6 8C26.8268 8 26.2 8.6268 26.2 9.4C26.2 10.1732 26.8268 10.8 27.6 10.8Z" fill="white"/>
<path d="M23.4 10.8C24.1732 10.8 24.8 10.1732 24.8 9.4C24.8 8.6268 24.1732 8 23.4 8C22.6268 8 22 8.6268 22 9.4C22 10.1732 22.6268 10.8 23.4 10.8Z" fill="white"/>
<defs>
<linearGradient id="paint0_linear_427_497" x1="36.4941" y1="36.4935" x2="36.4941" y2="18.7165" gradientUnits="userSpaceOnUse">
<stop stop-color="#5B21B6"/>
<stop offset="0.849482" stop-color="#5B21B6" stop-opacity="0"/>
</linearGradient>
<linearGradient id="paint1_linear_427_497" x1="3.56485" y1="9.5" x2="36" y2="9.5" gradientUnits="userSpaceOnUse">
<stop stop-color="#5B21B6"/>
<stop offset="1" stop-color="#5B21B6" stop-opacity="0"/>
</linearGradient>
</defs>
</svg>
