<svg width="42" height="42" viewBox="0 0 42 42" fill="none" xmlns="http://www.w3.org/2000/svg">
<path d="M11.661 4.72461C8.10391 4.72461 5.22034 7.58997 5.22034 11.1246V17.5246C5.22034 19.2919 3.77851 20.7246 2 20.7246C3.77851 20.7246 5.22034 22.1573 5.22034 23.9246V30.3246C5.22034 33.8592 8.10391 36.7246 11.661 36.7246M30.339 4.72461C33.8961 4.72461 36.7797 7.58997 36.7797 11.1246V17.5246C36.7797 19.2919 38.2215 20.7246 40 20.7246C38.2215 20.7246 36.7797 22.1573 36.7797 23.9246V30.3246C36.7797 33.8592 33.8961 36.7246 30.339 36.7246" stroke="#EADDFF" stroke-width="2"/>
<path d="M11.661 4.72461C8.10391 4.72461 5.22034 7.58997 5.22034 11.1246V17.5246C5.22034 19.2919 3.77851 20.7246 2 20.7246C3.77851 20.7246 5.22034 22.1573 5.22034 23.9246V30.3246C5.22034 33.8592 8.10391 36.7246 11.661 36.7246M30.339 4.72461C33.8961 4.72461 36.7797 7.58997 36.7797 11.1246V17.5246C36.7797 19.2919 38.2215 20.7246 40 20.7246C38.2215 20.7246 36.7797 22.1573 36.7797 23.9246V30.3246C36.7797 33.8592 33.8961 36.7246 30.339 36.7246" stroke="url(#paint0_linear_525_893)" stroke-width="2"/>
<circle cx="20.987" cy="19.7246" r="10" fill="#7D9FDF"/>
<circle cx="20.987" cy="19.7246" r="10" fill="#EADDFF"/>
<circle cx="20.987" cy="19.7246" r="10" fill="url(#paint1_linear_525_893)"/>
<path d="M16 15.7246L26 24.7246M16 24.7246L26 15.7246" stroke="white" stroke-width="2"/>
<defs>
<linearGradient id="paint0_linear_525_893" x1="40" y1="36.7246" x2="40" y2="18.3671" gradientUnits="userSpaceOnUse">
<stop stop-color="#5B21B6"/>
<stop offset="0.849482" stop-color="#5B21B6" stop-opacity="0"/>
</linearGradient>
<linearGradient id="paint1_linear_525_893" x1="9.36361" y1="19.7246" x2="30.987" y2="19.7246" gradientUnits="userSpaceOnUse">
<stop stop-color="#5B21B6"/>
<stop offset="1" stop-color="#5B21B6" stop-opacity="0"/>
</linearGradient>
</defs>
</svg>
